<svg width="321" height="200" viewBox="0 0 321 200" fill="none" xmlns="http://www.w3.org/2000/svg">
    <path
        d="M75.7602 19.9377C75.7602 8.92642 84.6866 0 95.6979 0H224.551C235.563 0 244.489 8.92641 244.489 19.9377V148.791C244.489 159.802 235.563 168.729 224.551 168.729H95.6979C84.6866 168.729 75.7602 159.803 75.7602 148.791V19.9377Z"
        fill="#393E46" />
    <path fill-rule="evenodd" clip-rule="evenodd"
        d="M224.551 9.96885H95.6979C90.1922 9.96885 85.729 14.4321 85.729 19.9377V148.791C85.729 154.297 90.1922 158.76 95.6979 158.76H224.551C230.057 158.76 234.52 154.297 234.52 148.791V19.9377C234.52 14.4321 230.057 9.96885 224.551 9.96885ZM95.6979 0C84.6866 0 75.7602 8.92642 75.7602 19.9377V148.791C75.7602 159.802 84.6866 168.729 95.6979 168.729H224.551C235.563 168.729 244.489 159.802 244.489 148.791V19.9377C244.489 8.92641 235.563 0 224.551 0H95.6979Z"
        fill="#00ADB5" />
    <path fill-rule="evenodd" clip-rule="evenodd"
        d="M102.783 32.7493V135.32C102.783 139.213 105.903 142.365 109.755 142.365H152.008L170.452 116.099C171.331 114.846 173.53 114.846 174.41 116.099L180.867 125.297L180.917 125.369L180.961 125.305L194.81 105.216C195.767 103.825 198.167 103.825 199.125 105.216L217.466 131.825V135.329V32.7493C217.466 28.8568 214.338 25.7048 210.494 25.7048H109.755C105.903 25.7048 102.783 28.8568 102.783 32.7493Z"
        fill="#DE8971" />
    <path
        d="M138.061 81.1014C126.95 81.1014 117.942 72.0938 117.942 60.9825C117.942 49.8715 126.95 40.864 138.061 40.864C149.172 40.864 158.18 49.8715 158.18 60.9825C158.18 72.0938 149.172 81.1014 138.061 81.1014Z"
        fill="white" />
    <path fill-rule="evenodd" clip-rule="evenodd"
        d="M320.422 21.8069L320.422 147.041L277.259 147.041C267.624 147.041 259.813 139.23 259.813 129.595L259.813 39.2523C259.813 29.6175 267.624 21.8069 277.259 21.8069L320.422 21.8069ZM277.259 29.2835C271.753 29.2835 267.29 33.7467 267.29 39.2523L267.29 129.595C267.29 135.101 271.753 139.564 277.259 139.564L312.945 139.564L312.945 29.2835L277.259 29.2835Z"
        fill="#DE8971" />
    <path
        d="M267.29 39.2523C267.29 33.7467 271.753 29.2835 277.259 29.2835L320.422 29.2835L320.422 139.564L277.259 139.564C271.753 139.564 267.29 135.101 267.29 129.595L267.29 39.2523Z"
        fill="#393E46" />
    <path fill-rule="evenodd" clip-rule="evenodd"
        d="M-1.6683e-06 150.779L9.27998e-06 25.5452L43.163 25.5452C52.7979 25.5452 60.6085 33.3558 60.6085 42.9907L60.6085 133.333C60.6085 142.968 52.7979 150.779 43.163 150.779L-1.6683e-06 150.779ZM43.163 143.302C48.6686 143.302 53.1318 138.839 53.1318 133.333L53.1318 42.9907C53.1318 37.485 48.6686 33.0218 43.163 33.0218L7.47664 33.0218L7.47664 143.302L43.163 143.302Z"
        fill="#DE8971" />
    <path
        d="M53.1318 133.333C53.1318 138.839 48.6686 143.302 43.163 143.302L7.91979e-07 143.302L1.0433e-05 33.0218L43.163 33.0218C48.6686 33.0218 53.1318 37.485 53.1318 42.9907L53.1318 133.333Z"
        fill="#393E46" />
    <ellipse cx="160.125" cy="189.161" rx="10.5455" ry="10.5456" fill="#393E46" />
    <ellipse cx="185.83" cy="189.161" rx="6.59097" ry="6.59098" fill="#778190" />
    <ellipse cx="207.58" cy="189.161" rx="6.59097" ry="6.59098" fill="#778190" />
    <ellipse cx="134.42" cy="189.161" rx="6.59097" ry="6.59098" fill="#778190" />
    <ellipse cx="112.67" cy="189.161" rx="6.59097" ry="6.59098" fill="#778190" />
</svg>
