<svg width="206" height="128" viewBox="0 0 206 128" fill="none" xmlns="http://www.w3.org/2000/svg">
    <path
        d="M48.4865 12.7601C48.4865 5.71291 54.1994 0 61.2466 0H143.713C150.76 0 156.473 5.7129 156.473 12.7601V95.2264C156.473 102.274 150.76 107.987 143.713 107.987H61.2466C54.1994 107.987 48.4865 102.274 48.4865 95.2264V12.7601Z"
        fill="#393E46" />
    <path fill-rule="evenodd" clip-rule="evenodd"
        d="M143.713 6.38006H61.2466C57.723 6.38006 54.8666 9.23652 54.8666 12.7601V95.2264C54.8666 98.75 57.723 101.606 61.2466 101.606H143.713C147.236 101.606 150.093 98.75 150.093 95.2264V12.7601C150.093 9.23652 147.236 6.38006 143.713 6.38006ZM61.2466 0C54.1994 0 48.4865 5.71291 48.4865 12.7601V95.2264C48.4865 102.274 54.1994 107.987 61.2466 107.987H143.713C150.76 107.987 156.473 102.274 156.473 95.2264V12.7601C156.473 5.7129 150.76 0 143.713 0H61.2466Z"
        fill="#00ADB5" />
    <path fill-rule="evenodd" clip-rule="evenodd"
        d="M65.7812 20.9596V86.6049C65.7812 89.0962 67.7778 91.1136 70.2434 91.1136H97.285L109.089 74.3034C109.652 73.5015 111.059 73.5015 111.622 74.3034L115.755 80.1901L115.787 80.2359L115.815 80.1954L124.678 67.338C125.291 66.4478 126.827 66.4478 127.44 67.338L139.178 84.3681V86.6103V20.9596C139.178 18.4684 137.176 16.4511 134.716 16.4511H70.2434C67.7778 16.4511 65.7812 18.4684 65.7812 20.9596Z"
        fill="#DE8971" />
    <path
        d="M88.359 51.9049C81.2478 51.9049 75.4832 46.1401 75.4832 39.0288C75.4832 31.9178 81.2478 26.153 88.359 26.153C95.4702 26.153 101.235 31.9178 101.235 39.0288C101.235 46.1401 95.4702 51.9049 88.359 51.9049Z"
        fill="white" />
    <path fill-rule="evenodd" clip-rule="evenodd"
        d="M205.07 13.9564L205.07 94.1059L177.446 94.1059C171.279 94.1059 166.28 89.1071 166.28 82.9408L166.28 25.1215C166.28 18.9552 171.279 13.9564 177.446 13.9564L205.07 13.9564ZM177.446 18.7414C173.922 18.7414 171.066 21.5979 171.066 25.1215L171.065 82.9408C171.065 86.4644 173.922 89.3209 177.446 89.3209L200.285 89.3209L200.285 18.7414L177.446 18.7414Z"
        fill="#DE8971" />
    <path
        d="M171.065 25.1215C171.065 21.5979 173.922 18.7415 177.446 18.7415L205.07 18.7415L205.07 89.3209L177.446 89.3209C173.922 89.3209 171.065 86.4644 171.065 82.9408L171.065 25.1215Z"
        fill="#393E46" />
    <path fill-rule="evenodd" clip-rule="evenodd"
        d="M8.45361e-06 96.4985L1.54605e-05 16.3489L27.6243 16.3489C33.7906 16.3489 38.7894 21.3477 38.7894 27.514L38.7894 85.3334C38.7894 91.4997 33.7906 96.4985 27.6243 96.4985L8.45361e-06 96.4985ZM27.6243 91.7134C31.1479 91.7134 34.0044 88.857 34.0044 85.3334L34.0044 27.514C34.0044 23.9904 31.1479 21.134 27.6243 21.134L4.78506 21.134L4.78506 91.7134L27.6243 91.7134Z"
        fill="#DE8971" />
    <path
        d="M34.0044 85.3333C34.0044 88.857 31.1479 91.7134 27.6243 91.7134L8.13403e-06 91.7134L1.43043e-05 21.134L27.6243 21.134C31.1479 21.134 34.0044 23.9904 34.0044 27.514L34.0044 85.3333Z"
        fill="#393E46" />
    <ellipse cx="102.48" cy="121.063" rx="6.74915" ry="6.74916" fill="#393E46" />
    <ellipse cx="118.931" cy="121.063" rx="4.21821" ry="4.21823" fill="#778190" />
    <ellipse cx="132.851" cy="121.063" rx="4.21821" ry="4.21823" fill="#778190" />
    <ellipse cx="86.0287" cy="121.063" rx="4.21822" ry="4.21823" fill="#778190" />
    <circle cx="72.1086" cy="121.063" r="4.21823" fill="#778190" />
</svg>
